<svg class="animated" id="freepik_stories-vault" xmlns="http://www.w3.org/2000/svg" viewBox="0 0 500 500" version="1.1" xmlns:xlink="http://www.w3.org/1999/xlink" xmlns:svgjs="http://svgjs.com/svgjs"><style>svg#freepik_stories-vault:not(.animated) .animable {opacity: 0;}svg#freepik_stories-vault.animated #freepik--Shield--inject-1 {animation: 1.5s Infinite  linear floating;animation-delay: 0s;}            @keyframes floating {                0% {                    opacity: 1;                    transform: translateY(0px);                }                50% {                    transform: translateY(-10px);                }                100% {                    opacity: 1;                    transform: translateY(0px);                }            }        </style><g id="freepik--background-complete--inject-1" class="animable" style="transform-origin: 250px 225.125px;"><rect y="382.4" width="500" height="0.25" style="fill: rgb(240, 240, 240); transform-origin: 250px 382.525px;" id="elsbyg46wh0oc" class="animable"></rect><rect x="344.52" y="395" width="10.48" height="0.25" style="fill: rgb(240, 240, 240); transform-origin: 349.76px 395.125px;" id="elg740les1ynk" class="animable"></rect><rect x="64.93" y="388.44" width="10.13" height="0.25" style="fill: rgb(240, 240, 240); transform-origin: 69.995px 388.565px;" id="elvt4xy5m099s" class="animable"></rect><rect x="153.45" y="394.88" width="30.66" height="0.25" style="fill: rgb(240, 240, 240); transform-origin: 168.78px 395.005px;" id="el3i0k3waiza9" class="animable"></rect><rect x="214.32" y="389.17" width="19.68" height="0.25" style="fill: rgb(240, 240, 240); transform-origin: 224.16px 389.295px;" id="eldo9tovnwlzr" class="animable"></rect><rect x="377.18" y="390.76" width="52.44" height="0.25" style="fill: rgb(240, 240, 240); transform-origin: 403.4px 390.885px;" id="el2vo6mitqiem" class="animable"></rect><rect x="79.89" y="388.44" width="43.07" height="0.25" style="fill: rgb(240, 240, 240); transform-origin: 101.425px 388.565px;" id="el0cnpzwsdrr1o" class="animable"></rect><rect x="435.45" y="390.88" width="16.47" height="0.25" style="fill: rgb(240, 240, 240); transform-origin: 443.685px 391.005px;" id="eldyx7fejhch" class="animable"></rect><path d="M237,337.8H43.91a5.71,5.71,0,0,1-5.7-5.71V60.66A5.71,5.71,0,0,1,43.91,55H237a5.71,5.71,0,0,1,5.71,5.71V332.09A5.71,5.71,0,0,1,237,337.8ZM43.91,55.2a5.46,5.46,0,0,0-5.45,5.46V332.09a5.46,5.46,0,0,0,5.45,5.46H237a5.47,5.47,0,0,0,5.46-5.46V60.66A5.47,5.47,0,0,0,237,55.2Z" style="fill: rgb(240, 240, 240); transform-origin: 140.46px 196.4px;" id="elaxp1idlbr9e" class="animable"></path><path d="M453.31,337.8H260.21a5.72,5.72,0,0,1-5.71-5.71V60.66A5.72,5.72,0,0,1,260.21,55h193.1A5.71,5.71,0,0,1,459,60.66V332.09A5.71,5.71,0,0,1,453.31,337.8ZM260.21,55.2a5.47,5.47,0,0,0-5.46,5.46V332.09a5.47,5.47,0,0,0,5.46,5.46h193.1a5.47,5.47,0,0,0,5.46-5.46V60.66a5.47,5.47,0,0,0-5.46-5.46Z" style="fill: rgb(240, 240, 240); transform-origin: 356.75px 196.4px;" id="elnkownwt74qj" class="animable"></path><rect x="408.36" y="322.37" width="27.5" height="60.03" style="fill: rgb(230, 230, 230); transform-origin: 422.11px 352.385px;" id="elizm3jk1k1xl" class="animable"></rect><polygon points="430.64 382.4 435.86 382.4 435.86 367.54 425.16 367.54 430.64 382.4" style="fill: rgb(245, 245, 245); transform-origin: 430.51px 374.97px;" id="elie7gakl29af" class="animable"></polygon><rect x="251.44" y="322.37" width="27.5" height="60.03" style="fill: rgb(235, 235, 235); transform-origin: 265.19px 352.385px;" id="ellsl7zbkaomo" class="animable"></rect><rect x="274.38" y="322.37" width="161.48" height="50.91" style="fill: rgb(245, 245, 245); transform-origin: 355.12px 347.825px;" id="el2lmyvqan1j9" class="animable"></rect><g id="elx9koen0fk8i"><rect x="289.95" y="317.03" width="27.47" height="47.87" style="fill: rgb(230, 230, 230); transform-origin: 303.685px 340.965px; transform: rotate(-90deg);" class="animable" id="elr8o7e42j4l"></rect></g><path d="M308.42,331.39H299a15,15,0,0,1-10.88-4.68H319.3A15,15,0,0,1,308.42,331.39Z" style="fill: rgb(240, 240, 240); transform-origin: 303.71px 329.05px;" id="el1adrlbd6cc9i" class="animable"></path><g id="elezn2pxq4imu"><rect x="341.39" y="317.03" width="27.47" height="47.87" style="fill: rgb(230, 230, 230); transform-origin: 355.125px 340.965px; transform: rotate(-90deg);" class="animable" id="elyla9s97wy2q"></rect></g><path d="M360.34,331.39h-9.47A15,15,0,0,1,340,326.71h31.22A15,15,0,0,1,360.34,331.39Z" style="fill: rgb(240, 240, 240); transform-origin: 355.61px 329.05px;" id="elyodppkp4xme" class="animable"></path><g id="elt4ovyt1uf27"><rect x="392.82" y="317.03" width="27.47" height="47.87" style="fill: rgb(230, 230, 230); transform-origin: 406.555px 340.965px; transform: rotate(-90deg);" class="animable" id="elfpozk9lqei"></rect></g><path d="M411.78,331.39h-9.47a15,15,0,0,1-10.88-4.68h31.22A15,15,0,0,1,411.78,331.39Z" style="fill: rgb(240, 240, 240); transform-origin: 407.04px 329.05px;" id="el4tolhzg6xn2" class="animable"></path><polygon points="279.6 382.4 274.38 382.4 274.38 367.54 285.08 367.54 279.6 382.4" style="fill: rgb(245, 245, 245); transform-origin: 279.73px 374.97px;" id="eletb0ngu7tuo" class="animable"></polygon><rect x="62.87" y="73.99" width="245.54" height="132.46" style="fill: rgb(230, 230, 230); transform-origin: 185.64px 140.22px;" id="el9g2wpmzx68n" class="animable"></rect><rect x="65.24" y="73.99" width="248.24" height="132.46" style="fill: rgb(235, 235, 235); transform-origin: 189.36px 140.22px;" id="elgh6tr8kirv7" class="animable"></rect><rect x="62.87" y="206.45" width="245.54" height="9.44" style="fill: rgb(230, 230, 230); transform-origin: 185.64px 211.17px;" id="el87y3ejjfwam" class="animable"></rect><rect x="73.7" y="206.45" width="248.24" height="9.44" style="fill: rgb(230, 230, 230); transform-origin: 197.82px 211.17px;" id="el35y7180lfvv" class="animable"></rect><g id="elnnsvlusmtb"><rect x="130.24" y="23.21" width="118.24" height="234.02" style="fill: rgb(250, 250, 250); transform-origin: 189.36px 140.22px; transform: rotate(90deg);" class="animable" id="elxde0sqehu3c"></rect></g><polygon points="85.95 199.34 127.69 81.1 147.39 81.1 105.65 199.34 85.95 199.34" style="fill: rgb(255, 255, 255); transform-origin: 116.67px 140.22px;" id="el97fiv1em4m8" class="animable"></polygon><path d="M75.64,159.26a.54.54,0,0,1-.54-.54v-73a.55.55,0,0,1,.54-.55.55.55,0,0,1,.55.55v73A.55.55,0,0,1,75.64,159.26Z" style="fill: rgb(230, 230, 230); transform-origin: 75.645px 122.215px;" id="elfbhznaxis9" class="animable"></path><polygon points="109.89 199.34 151.62 81.1 159.3 81.1 117.57 199.34 109.89 199.34" style="fill: rgb(255, 255, 255); transform-origin: 134.595px 140.22px;" id="elg9076xq5aq9" class="animable"></polygon><g id="eleow06nw7fr"><rect x="246.8" y="139.77" width="118.24" height="0.9" style="fill: rgb(230, 230, 230); transform-origin: 305.92px 140.22px; transform: rotate(90deg);" class="animable" id="elvjm3fozebc8"></rect></g><polygon points="315.16 90.2 69.63 90.2 68.97 83.86 314.51 83.86 315.16 90.2" style="fill: rgb(235, 235, 235); transform-origin: 192.065px 87.03px;" id="elhoee4g3gzu" class="animable"></polygon><polygon points="315.16 94.83 69.63 94.83 68.97 88.5 314.51 88.5 315.16 94.83" style="fill: rgb(235, 235, 235); transform-origin: 192.065px 91.665px;" id="elotq13xxiywo" class="animable"></polygon><polygon points="315.16 100.4 69.63 100.4 68.97 94.06 314.51 94.06 315.16 100.4" style="fill: rgb(235, 235, 235); transform-origin: 192.065px 97.23px;" id="ellnz4kwqm9u" class="animable"></polygon><polygon points="315.16 106.59 69.63 106.59 68.97 100.25 314.51 100.25 315.16 106.59" style="fill: rgb(235, 235, 235); transform-origin: 192.065px 103.42px;" id="elewi9vpv9tup" class="animable"></polygon><polygon points="315.16 114 69.63 114 68.97 107.67 314.51 107.67 315.16 114" style="fill: rgb(230, 230, 230); transform-origin: 192.065px 110.835px;" id="el6rgnfg8mm8" class="animable"></polygon><polygon points="315.16 122.35 69.63 122.35 68.97 116.02 314.51 116.02 315.16 122.35" style="fill: rgb(230, 230, 230); transform-origin: 192.065px 119.185px;" id="elsh955osmgo" class="animable"></polygon><rect x="342.24" y="130" width="34.25" height="39.46" style="fill: rgb(235, 235, 235); transform-origin: 359.365px 149.73px;" id="el0mx73rdj7fvr" class="animable"></rect><rect x="346.3" y="130" width="37.12" height="39.46" style="fill: rgb(245, 245, 245); transform-origin: 364.86px 149.73px;" id="elvvp093lkb4g" class="animable"></rect><g id="eltbr22c0v86"><rect x="348.24" y="134.28" width="33.24" height="30.9" style="fill: rgb(255, 255, 255); transform-origin: 364.86px 149.73px; transform: rotate(90deg);" class="animable" id="elokqqs58mx4n"></rect></g><g id="elp2p6egk1a6h"><rect x="356.3" y="141.77" width="17.13" height="15.92" rx="2.73" style="fill: rgb(250, 250, 250); transform-origin: 364.865px 149.73px; transform: rotate(90deg);" class="animable" id="el9hm5k5hzeqi"></rect></g><rect x="393.93" y="112.65" width="34.25" height="39.46" style="fill: rgb(235, 235, 235); transform-origin: 411.055px 132.38px;" id="elou1pma9p2rp" class="animable"></rect><rect x="397.99" y="112.65" width="37.12" height="39.46" style="fill: rgb(245, 245, 245); transform-origin: 416.55px 132.38px;" id="eltmudljymf5" class="animable"></rect><g id="eloxxi3gaq71p"><rect x="399.93" y="116.93" width="33.24" height="30.9" style="fill: rgb(255, 255, 255); transform-origin: 416.55px 132.38px; transform: rotate(90deg);" class="animable" id="eltdexwgflsw"></rect></g><g id="elzohfaggsvq"><rect x="407.99" y="124.42" width="17.12" height="15.92" rx="2.73" style="fill: rgb(250, 250, 250); transform-origin: 416.55px 132.38px; transform: rotate(90deg);" class="animable" id="el0yrxqzvslff"></rect></g><rect x="204.77" y="265.67" width="55.56" height="116.73" style="fill: rgb(230, 230, 230); transform-origin: 232.55px 324.035px;" id="eldfmyd170wd" class="animable"></rect><polygon points="254.75 382.4 260.33 382.4 260.33 366.5 248.88 366.5 254.75 382.4" style="fill: rgb(230, 230, 230); transform-origin: 254.605px 374.45px;" id="elnjp8igiy9m" class="animable"></polygon><rect x="68.1" y="265.67" width="55.56" height="116.73" style="fill: rgb(230, 230, 230); transform-origin: 95.88px 324.035px;" id="elslptt2kx7aa" class="animable"></rect><rect x="118.78" y="265.67" width="141.55" height="106.98" style="fill: rgb(245, 245, 245); transform-origin: 189.555px 319.16px;" id="elibqpqzv5skr" class="animable"></rect><rect x="121.94" y="270.41" width="132.88" height="29.34" style="fill: rgb(230, 230, 230); transform-origin: 188.38px 285.08px;" id="elb4y7vvkoul" class="animable"></rect><path d="M195.83,279.53H183.28c-5.45,0-10.66-3.62-14.41-10h41.38C206.5,275.91,201.29,279.53,195.83,279.53Z" style="fill: rgb(245, 245, 245); transform-origin: 189.56px 274.53px;" id="elu5o2knp9nm7" class="animable"></path><polygon points="124.37 382.4 118.78 382.4 118.78 366.5 130.23 366.5 124.37 382.4" style="fill: rgb(230, 230, 230); transform-origin: 124.505px 374.45px;" id="eludh4mjgtyw" class="animable"></polygon><rect x="121.94" y="304.49" width="132.88" height="29.34" style="fill: rgb(230, 230, 230); transform-origin: 188.38px 319.16px;" id="elyy8v0b8x5rq" class="animable"></rect><path d="M195.83,313.6H183.28c-5.45,0-10.66-3.62-14.41-10h41.38C206.5,310,201.29,313.6,195.83,313.6Z" style="fill: rgb(245, 245, 245); transform-origin: 189.56px 308.6px;" id="el4yu7mgim4b5" class="animable"></path><rect x="121.94" y="338.57" width="132.88" height="29.34" style="fill: rgb(230, 230, 230); transform-origin: 188.38px 353.24px;" id="elt9sl64ghys" class="animable"></rect><path d="M195.83,347.68H183.28c-5.45,0-10.66-3.62-14.41-10h41.38C206.5,344.06,201.29,347.68,195.83,347.68Z" style="fill: rgb(245, 245, 245); transform-origin: 189.56px 342.68px;" id="els8kl2cuanis" class="animable"></path><path d="M382.53,311.6h1.66c0-3.41,0-12.08.18-31.94.29-36,.87-38.19.87-38.19l-3.95,16.62C378.78,276.49,382,295,382.53,311.6Z" style="fill: rgb(230, 230, 230); transform-origin: 382.792px 276.535px;" id="elehchrqg7hyd" class="animable"></path><path d="M375.18,251.93c-8.69-8.59-25.66-9.74-43-10.46-6.8-.28,19,12.79,31.93,22.58,10,7.6,16.17,9.39,19.5,17.59C384,271,382.67,259.33,375.18,251.93Z" style="fill: rgb(230, 230, 230); transform-origin: 357.364px 261.553px;" id="elyvkck9alt7" class="animable"></path><path d="M384.73,233.25c5.89-11.19,20.71-21.73,37.34-25.72,6.52-1.57-15.13,20.66-23.36,35-6.39,11.14-14.87,24.22-16.18,33.62C380.54,257.52,378.84,244.44,384.73,233.25Z" style="fill: rgb(230, 230, 230); transform-origin: 401.974px 241.801px;" id="elmvk9vf5xisr" class="animable"></path><path d="M384,322.37h0a10.93,10.93,0,0,1-10.9-10.3l-1-9.87h23.73l-1,9.87A10.94,10.94,0,0,1,384,322.37Z" style="fill: rgb(240, 240, 240); transform-origin: 383.965px 312.285px;" id="elmylinmz41yd" class="animable"></path><polygon points="397.38 306 370.57 306 369.8 295 398.15 295 397.38 306" style="fill: rgb(245, 245, 245); transform-origin: 383.975px 300.5px;" id="elxgignkx96t" class="animable"></polygon></g><g id="freepik--Shadow--inject-1" class="animable" style="transform-origin: 250px 416.24px;"><ellipse cx="250" cy="416.24" rx="193.89" ry="11.32" style="fill: rgb(245, 245, 245); transform-origin: 250px 416.24px;" id="elrc5f2jp73zn" class="animable"></ellipse></g><g id="freepik--Shield--inject-1" class="animable" style="transform-origin: 274.671px 157.483px;"><path d="M245.46,142.81c1.36,17,21,39.08,27.28,45.76a2.64,2.64,0,0,0,3.86,0c6.3-6.68,25.92-28.77,27.28-45.76a2.69,2.69,0,0,0-1.39-2.6l-26.56-14.33a2.62,2.62,0,0,0-2.52,0l-26.56,14.33A2.71,2.71,0,0,0,245.46,142.81Z" style="fill: #3B82F6; transform-origin: 274.671px 157.483px;" id="elkhsgebl2hog" class="animable"></path><g id="el5jjxdtz2ct7"><path d="M272.7,182.13c-8-9-19.6-24.13-22.37-36.17a2.69,2.69,0,0,1,1.28-2.92l21.74-12.5a2.67,2.67,0,0,1,2.65,0L297.74,143A2.68,2.68,0,0,1,299,146c-2.76,12.06-14.32,27.13-22.36,36.17A2.63,2.63,0,0,1,272.7,182.13Z" style="fill: #3B82F6; opacity: 0.3; transform-origin: 274.675px 156.613px;" class="animable" id="eln2lnehyqipn"></path></g><g id="elmsvlx0j5iy"><path d="M272.7,182.13c-8-9-19.6-24.13-22.37-36.17a2.69,2.69,0,0,1,1.28-2.92l21.74-12.5a2.67,2.67,0,0,1,2.65,0L297.74,143A2.68,2.68,0,0,1,299,146c-2.76,12.06-14.32,27.13-22.36,36.17A2.63,2.63,0,0,1,272.7,182.13Z" style="fill: rgb(255, 255, 255); opacity: 0.3; transform-origin: 274.675px 156.613px;" class="animable" id="elo38whjowyqd"></path></g><path d="M271.71,163.88a1.49,1.49,0,0,1-1.06-.44L263.24,156a1.5,1.5,0,0,1,2.12-2.12l6.35,6.34,15-14.95a1.51,1.51,0,0,1,2.12,0,1.49,1.49,0,0,1,0,2.12l-16,16A1.53,1.53,0,0,1,271.71,163.88Z" style="fill: rgb(255, 255, 255); transform-origin: 276.055px 154.358px;" id="elz2veh1f7xa" class="animable"></path></g><g id="freepik--Vault--inject-1" class="animable" style="transform-origin: 271.75px 309.12px;"><rect x="184" y="204.33" width="162.67" height="205.9" rx="12" style="fill: rgb(38, 50, 56); transform-origin: 265.335px 307.28px;" id="elu0gyv7ck7gj" class="animable"></rect><rect x="193.34" y="204.33" width="162.67" height="205.9" rx="12" style="fill: #3B82F6; transform-origin: 274.675px 307.28px;" id="elovfxm709zp" class="animable"></rect><rect x="207.51" y="410.24" width="15" height="3.67" rx="0.75" style="fill: rgb(38, 50, 56); transform-origin: 215.01px 412.075px;" id="elrihico1sv1p" class="animable"></rect><rect x="326.83" y="410.24" width="15" height="3.67" rx="0.75" style="fill: rgb(38, 50, 56); transform-origin: 334.33px 412.075px;" id="elwxw4de1ezf9" class="animable"></rect><g id="elhuvad91akkd"><rect x="193.34" y="204.33" width="162.67" height="205.9" rx="12" style="opacity: 0.2; transform-origin: 274.675px 307.28px;" class="animable" id="elwokqm5ggiu"></rect></g><g id="el1oal9am6nu2"><path d="M327.67,386.49h-106a4.59,4.59,0,0,1-4.58-4.58V232.67a4.59,4.59,0,0,1,4.58-4.59h106a4.59,4.59,0,0,1,4.58,4.59V381.91A4.59,4.59,0,0,1,327.67,386.49Zm-106-157.91a4.09,4.09,0,0,0-4.08,4.09V381.91a4.08,4.08,0,0,0,4.08,4.08h106a4.08,4.08,0,0,0,4.08-4.08V232.67a4.09,4.09,0,0,0-4.08-4.09Z" style="fill: rgb(230, 230, 230); opacity: 0.4; mix-blend-mode: color-dodge; transform-origin: 274.67px 307.285px;" class="animable" id="elddz0j9drrow"></path></g><g id="elqwslo7imzyh"><rect x="197.72" y="251.95" width="153.91" height="110.67" rx="2.33" style="fill: #3B82F6; transform-origin: 274.675px 307.285px; transform: rotate(90deg);" class="animable" id="elkuqtm26yy8o"></rect></g><g id="elhkk6zlfqi4v"><rect x="197.72" y="251.95" width="153.91" height="110.67" rx="2.33" style="fill: rgb(255, 255, 255); opacity: 0.1; transform-origin: 274.675px 307.285px; transform: rotate(90deg);" class="animable" id="el5gn80zh12i8"></rect></g><rect x="358.5" y="246.78" width="1" height="8.44" style="fill: #3B82F6; transform-origin: 359px 251px;" id="el7ia8ob6v8p" class="animable"></rect><rect x="358.5" y="216.33" width="1" height="21.56" style="fill: #3B82F6; transform-origin: 359px 227.11px;" id="eluhw0bupk7n" class="animable"></rect><g id="eltxw00x71ti"><circle cx="274.67" cy="310.2" r="34.1" style="opacity: 0.1; transform-origin: 274.67px 310.2px;" class="animable" id="el9f13cw4kie4"></circle></g><circle cx="274.67" cy="251.23" r="8.33" style="fill: #3B82F6; transform-origin: 274.67px 251.23px;" id="elrmr6m99kpv" class="animable"></circle><g id="elhzfguq0yzgf"><circle cx="274.62" cy="251.21" r="8.33" style="fill: rgb(255, 255, 255); opacity: 0.6; transform-origin: 274.62px 251.21px;" class="animable" id="elqxdabq217qe"></circle></g><path d="M274.67,257.81a6.58,6.58,0,1,1,6.58-6.58A6.59,6.59,0,0,1,274.67,257.81Zm0-12.66a6.08,6.08,0,1,0,6.08,6.08A6.09,6.09,0,0,0,274.67,245.15Z" style="fill: #3B82F6; transform-origin: 274.67px 251.23px;" id="el90lxoqkb3x" class="animable"></path><rect x="214.01" y="249.93" width="6.67" height="23.26" rx="1.48" style="fill: #3B82F6; transform-origin: 217.345px 261.56px;" id="elc6lzetwy3tr" class="animable"></rect><g id="elnbesxj389zn"><rect x="214.01" y="249.93" width="6.67" height="23.26" rx="1.48" style="fill: rgb(255, 255, 255); opacity: 0.6; transform-origin: 217.345px 261.56px;" class="animable" id="elqmfy17wou1"></rect></g><rect x="214.01" y="341.38" width="6.67" height="23.26" rx="1.48" style="fill: #3B82F6; transform-origin: 217.345px 353.01px;" id="el6y0w0povlhu" class="animable"></rect><g id="el2v3wtfld2iu"><rect x="214.01" y="341.38" width="6.67" height="23.26" rx="1.48" style="fill: rgb(255, 255, 255); opacity: 0.6; transform-origin: 217.345px 353.01px;" class="animable" id="elgm55m381nth"></rect></g><circle cx="274.67" cy="307.29" r="34.1" style="fill: #3B82F6; transform-origin: 274.67px 307.29px;" id="el09lt2ih5oqo" class="animable"></circle><g id="elawm5rl145mn"><circle cx="274.67" cy="307.29" r="34.1" style="fill: rgb(255, 255, 255); opacity: 0.6; transform-origin: 274.67px 307.29px;" class="animable" id="el0ur8pv467brb"></circle></g><g id="eln5u70zwxljg"><rect x="273.67" y="282.42" width="2" height="49.74" style="fill: #3B82F6; transform-origin: 274.67px 307.29px; transform: rotate(-45deg);" class="animable" id="elgh6kvjeupy7"></rect></g><g id="el4fah163xno4"><rect x="249.8" y="306.29" width="49.74" height="2" style="fill: #3B82F6; transform-origin: 274.67px 307.29px; transform: rotate(-45deg);" class="animable" id="eli2odi4myk9p"></rect></g><g id="elohyk7bbgu2o"><rect x="249.7" y="306.17" width="49.74" height="2" style="opacity: 0.2; transform-origin: 274.57px 307.17px; transform: rotate(-45deg);" class="animable" id="eltnqermb96mr"></rect></g><g id="ell8475txn1yq"><rect x="273.57" y="282.31" width="2" height="49.74" style="opacity: 0.2; transform-origin: 274.57px 307.18px; transform: rotate(-45deg);" class="animable" id="eluziohvst69"></rect></g><path d="M274.57,333.06a25.89,25.89,0,1,1,25.88-25.89A25.91,25.91,0,0,1,274.57,333.06Zm0-49.78a23.89,23.89,0,1,0,23.88,23.89A23.91,23.91,0,0,0,274.57,283.28Z" style="fill: #3B82F6; transform-origin: 274.56px 307.17px;" id="elie58f70oxcd" class="animable"></path><g id="elcvh853xqzym"><circle cx="274.57" cy="307.17" r="10.83" style="fill: #3B82F6; transform-origin: 274.57px 307.17px; transform: rotate(-45deg);" class="animable" id="elwurx9zefw1b"></circle></g><g id="elx177bsxxl6"><path d="M274.57,333.06a25.89,25.89,0,1,1,25.88-25.89A25.91,25.91,0,0,1,274.57,333.06Zm0-49.78a23.89,23.89,0,1,0,23.88,23.89A23.91,23.91,0,0,0,274.57,283.28Z" style="opacity: 0.2; transform-origin: 274.56px 307.17px;" class="animable" id="el2uim2tmhobd"></path></g><g id="eljq54vszjbf"><circle cx="274.57" cy="307.17" r="10.83" style="opacity: 0.2; transform-origin: 274.57px 307.17px; transform: rotate(-45deg);" class="animable" id="elmc72slp9l4"></circle></g></g><g id="freepik--Character--inject-1" class="animable" style="transform-origin: 188.163px 259.282px;"><path d="M191,162.76c2.41,5.59,4.9,11.25,7.42,16.82s5.1,11.13,7.86,16.44c.71,1.3,1.39,2.65,2.13,3.88l.54.94.28.47a.46.46,0,0,0-.1-.1c-.12-.07,0,.07.24.24a9.39,9.39,0,0,0,2.94,1,36.71,36.71,0,0,0,4,.52c2.83.19,5.82.19,8.82.1l4.54-.19,4.52-.3,1.17,5.44a78.21,78.21,0,0,1-19.08,3.82,35.69,35.69,0,0,1-5.26-.05,18.78,18.78,0,0,1-6-1.42,10.48,10.48,0,0,1-3.49-2.48,9,9,0,0,1-.81-1l-.35-.52-.68-1c-.95-1.38-1.75-2.76-2.61-4.15-3.24-5.55-6.14-11.17-8.86-16.84s-5.25-11.39-7.63-17.26Z" style="fill: rgb(127, 62, 59); transform-origin: 207.975px 187.337px;" id="eld590erlm0op" class="animable"></path><path d="M177.72,162c-2.27,6.64,11.07,26.17,11.07,26.17l12.78-7.08a149.92,149.92,0,0,0-7.67-17.8C189.39,154.84,180.21,154.71,177.72,162Z" style="fill: #3B82F6; transform-origin: 189.515px 172.45px;" id="elzhchyxbvhgs" class="animable"></path><g id="elpq0klokfqzj"><path d="M177.72,162c-2.27,6.64,11.07,26.17,11.07,26.17l12.78-7.08a149.92,149.92,0,0,0-7.67-17.8C189.39,154.84,180.21,154.71,177.72,162Z" style="fill: rgb(255, 255, 255); opacity: 0.5; transform-origin: 189.515px 172.45px;" class="animable" id="elzqrnlhgwq5s"></path></g><path d="M177.53,162.83c2.86-1.37,6.16-.22,9.62,5.26s6.42,14.63,6.75,17.24l-5.11,2.83S176.47,170.12,177.53,162.83Z" style="fill: #3B82F6; transform-origin: 185.683px 175.232px;" id="elntatbgnlarn" class="animable"></path><g id="eloccrj5e5eyh"><path d="M177.53,162.83c2.86-1.37,6.16-.22,9.62,5.26s6.42,14.63,6.75,17.24l-5.11,2.83S176.47,170.12,177.53,162.83Z" style="fill: rgb(255, 255, 255); opacity: 0.4; transform-origin: 185.683px 175.232px;" class="animable" id="elsrw1boew1k"></path></g><path d="M186.35,156.92S195.87,179.31,189,221H149.36c-.49-6.09,2.31-35.78-4.56-64.46A101.24,101.24,0,0,1,158,154.86a147.9,147.9,0,0,1,16.85,0A76.45,76.45,0,0,1,186.35,156.92Z" style="fill: #3B82F6; transform-origin: 168.145px 187.81px;" id="elx0dfv60b0i" class="animable"></path><g id="elhbmyfpddsm"><path d="M186.35,156.92S195.87,179.31,189,221H149.36c-.49-6.09,2.31-35.78-4.56-64.46A101.24,101.24,0,0,1,158,154.86a147.9,147.9,0,0,1,16.85,0A76.45,76.45,0,0,1,186.35,156.92Z" style="fill: rgb(255, 255, 255); opacity: 0.5; transform-origin: 168.145px 187.81px;" class="animable" id="elcxt4dewt11m"></path></g><path d="M153.66,163.62c.82,4.72-.27,16-4.32,29.06a190.68,190.68,0,0,0-3.89-33.29v-.06C148.05,159.07,152.87,159.19,153.66,163.62Z" style="fill: #3B82F6; transform-origin: 149.682px 175.965px;" id="elcnekmunhhqn" class="animable"></path><g id="elxntnpuhpabc"><path d="M153.66,163.62c.82,4.72-.27,16-4.32,29.06a190.68,190.68,0,0,0-3.89-33.29v-.06C148.05,159.07,152.87,159.19,153.66,163.62Z" style="fill: rgb(255, 255, 255); opacity: 0.4; transform-origin: 149.682px 175.965px;" class="animable" id="eluggg6fcd5xh"></path></g><polygon points="135.31 398.63 141.19 403.89 152.38 392.24 146.5 386.98 135.31 398.63" style="fill: rgb(127, 62, 59); transform-origin: 143.845px 395.435px;" id="elge9hctzyzql" class="animable"></polygon><path d="M142.81,401.78,135.67,397a.66.66,0,0,0-.82,0l-5.46,5.51a1.1,1.1,0,0,0,.26,1.67c4.56,3.51,7.85,6.16,10.45,9.08,3,3.41,4.62,3.9,11.62,3.9,3.24,0,5.07-2.73,3.75-3.15-11.66-3.69-8.54-5.3-11.38-10.71A3.89,3.89,0,0,0,142.81,401.78Z" style="fill: rgb(38, 50, 56); transform-origin: 142.509px 407.009px;" id="elqa52mki2up9" class="animable"></path><polygon points="152.37 392.24 146.61 398.25 140.73 392.98 146.49 386.98 152.37 392.24" style="fill: rgb(94, 43, 43); transform-origin: 146.55px 392.615px;" id="el36jwm4o425j" class="animable"></polygon><polygon points="156.41 392.41 163.82 392.41 163.32 401.26 155.91 401.26 156.41 392.41" style="fill: rgb(94, 43, 43); transform-origin: 159.865px 396.835px;" id="elma47psltsn" class="animable"></polygon><path d="M189,221s7.81,54.06,10.47,83.48c2.14,23.61-48.91,94-48.91,94l-9.87-9.29s37.28-63.11,34.41-89.39c-2.77-25.45-12.2-78.83-12.2-78.83Z" style="fill: #3B82F6; transform-origin: 170.113px 309.725px;" id="elgzvmzkqqmet" class="animable"></path><g id="el7eg5u8rrwyx"><path d="M189,221s7.81,54.06,10.47,83.48c2.14,23.61-48.91,94-48.91,94l-9.87-9.29s37.28-63.11,34.41-89.39c-2.77-25.45-12.2-78.83-12.2-78.83Z" style="opacity: 0.5; transform-origin: 170.113px 309.725px;" class="animable" id="eladn9bv2ardj"></path></g><polygon points="155.44 409.57 162.86 409.57 163.82 392.41 156.41 392.41 155.44 409.57" style="fill: rgb(127, 62, 59); transform-origin: 159.63px 400.99px;" id="el5sfvd2k5u" class="animable"></polygon><path d="M163.25,408.72h-8.33a.53.53,0,0,0-.55.5l-.41,6.59a1.31,1.31,0,0,0,1.3,1.32c2.9-.05,4.29-.22,8-.22,2.25,0,11.83.24,14.95.24s3-3.08,1.7-3.36c-5.91-1.25-13.24-3-15.34-4.62A2.09,2.09,0,0,0,163.25,408.72Z" style="fill: rgb(38, 50, 56); transform-origin: 167.366px 412.935px;" id="elt2c60yun56n" class="animable"></path><path d="M232.63,202.92l6.81-2.7,1.66,7s-7.77,2.32-9,.08Z" style="fill: rgb(127, 62, 59); transform-origin: 236.6px 204.248px;" id="elyv8mtz041ip" class="animable"></path><polygon points="245.21 201.63 247.21 205.46 241.1 207.2 239.44 200.22 245.21 201.63" style="fill: rgb(127, 62, 59); transform-origin: 243.325px 203.71px;" id="elupvxhf2503b" class="animable"></polygon><path d="M176.49,155l-1.62-.17a147.9,147.9,0,0,0-16.85,0l-1,.06.09.27c.08.21,1.94,5.16,12.61,5.16,4.65,0,7.08-.77,7.64-2.44A3.07,3.07,0,0,0,176.49,155Z" style="fill: rgb(230, 230, 230); transform-origin: 167.227px 157.455px;" id="eli8z7uwhsf2a" class="animable"></path><path d="M159,135.88c1.25,5.42,2.66,15.36-1,19,0,0,1.58,4.49,11.66,4.49,11.08,0,5.19-4.49,5.19-4.49-6.1-1.44-6.09-5.93-5.19-10.14Z" style="fill: rgb(127, 62, 59); transform-origin: 167.207px 147.625px;" id="el07d0mqhvn9ns" class="animable"></path><path d="M163.37,139.49l6.31,5.22a17.35,17.35,0,0,0-.42,3c-2.32-.33-5.58-2.87-5.91-5.29A7.88,7.88,0,0,1,163.37,139.49Z" style="fill: rgb(94, 43, 43); transform-origin: 166.451px 143.6px;" id="el7rb37ruvn9t" class="animable"></path><path d="M174.84,119.75c3.37,2.18,3.85,12.66-1.08,14.16S168.46,115.63,174.84,119.75Z" style="fill: rgb(38, 50, 56); transform-origin: 173.736px 126.588px;" id="ely6sl1gpymfn" class="animable"></path><path d="M156.66,130.2c2.26,7,3.22,11.23,7.78,14.1a9.59,9.59,0,0,0,14.77-8.38c-.09-6.73-3.77-17.09-11.52-18.39A9.71,9.71,0,0,0,156.66,130.2Z" style="fill: rgb(127, 62, 59); transform-origin: 167.677px 131.588px;" id="elsnpp3itcttp" class="animable"></path><path d="M148.58,123.61C151,128,157.08,138,160,137s2.93-9-.82-14.07c0,0,29.71,3,30.31-13.88.61-17.27-13.7-.56-26.29,4.27C149.5,118.62,142.89,113.28,148.58,123.61Z" style="fill: rgb(38, 50, 56); transform-origin: 168.022px 119.237px;" id="el1nw8sh7f7t8" class="animable"></path><path d="M149.85,117.49a.25.25,0,0,1,0-.49c.45-.1.94-.19,1.47-.29a47.45,47.45,0,0,0,11.56-3.44c3.75-1.68,7.68-4.56,11.16-7.1a74.38,74.38,0,0,1,6.9-4.68.26.26,0,0,1,.34.1.25.25,0,0,1-.1.34,73.45,73.45,0,0,0-6.85,4.65c-3.49,2.55-7.45,5.44-11.25,7.15a47.76,47.76,0,0,1-11.66,3.47c-.53.1-1,.19-1.47.29Z" style="fill: rgb(38, 50, 56); transform-origin: 165.48px 109.476px;" id="elo9edzntgtj8" class="animable"></path><path d="M155.42,138.75a7.32,7.32,0,0,0,5,2.07c2.48,0,3-2.34,1.67-4.3-1.18-1.76-3.88-3.88-6.06-2.93S153.78,137.14,155.42,138.75Z" style="fill: rgb(127, 62, 59); transform-origin: 158.542px 137.087px;" id="ely9pugxz4ji" class="animable"></path><g id="el1npaj9sxbd1"><path d="M175.11,299.83c-1.43-13.11-4.63-33.65-7.38-50.47,1.44-2.82,5.48-8.53,5.48-8.53,3.62,12.51,11.49,59.67.26,123.36-11.7,18.86-22.9,34.32-22.9,34.32L149,374.19C159.85,353.85,177.1,318,175.11,299.83Z" style="opacity: 0.2; transform-origin: 164.14px 319.67px;" class="animable" id="eldjaq32v8nm"></path></g><path d="M168.05,129.81c.15.58.58,1,1,.9s.57-.63.42-1.21-.58-1-1-.89S167.9,129.23,168.05,129.81Z" style="fill: rgb(38, 50, 56); transform-origin: 168.76px 129.659px;" id="elzzmcuo5hgo" class="animable"></path><path d="M174.65,128.36c.15.58.58,1,1,.9s.57-.62.42-1.2-.57-1-1-.9S174.5,127.78,174.65,128.36Z" style="fill: rgb(38, 50, 56); transform-origin: 175.359px 128.21px;" id="eltqyc9w2eejf" class="animable"></path><path d="M172.63,129.11a22.57,22.57,0,0,0,4.05,4.35,3.42,3.42,0,0,1-2.66,1.13Z" style="fill: rgb(99, 15, 15); transform-origin: 174.655px 131.851px;" id="el19pw23gls8h" class="animable"></path><path d="M171.5,136.7a5.08,5.08,0,0,1-3.33-1.2.17.17,0,1,1,.24-.25,5,5,0,0,0,4.24,1,.17.17,0,0,1,.08.34A5.53,5.53,0,0,1,171.5,136.7Z" style="fill: rgb(38, 50, 56); transform-origin: 170.491px 135.952px;" id="elwkudmkh3sdm" class="animable"></path><path d="M165.43,128.14a.35.35,0,0,1-.14,0,.34.34,0,0,1-.18-.46,3.38,3.38,0,0,1,2.44-2,.37.37,0,0,1,.4.3.35.35,0,0,1-.3.4,2.69,2.69,0,0,0-1.9,1.61A.34.34,0,0,1,165.43,128.14Z" style="fill: rgb(38, 50, 56); transform-origin: 166.516px 126.913px;" id="elaroh7jkeq8f" class="animable"></path><path d="M176.88,125.49a.34.34,0,0,1-.27-.13,3,3,0,0,0-2.34-1.12.36.36,0,0,1-.38-.32.36.36,0,0,1,.32-.38,3.68,3.68,0,0,1,2.94,1.37.36.36,0,0,1-.05.5A.35.35,0,0,1,176.88,125.49Z" style="fill: rgb(38, 50, 56); transform-origin: 175.559px 124.515px;" id="elu7e7dgm5gw" class="animable"></path><path d="M149.94,196.68a28.54,28.54,0,0,1-5.7-2.65,6.24,6.24,0,0,1-1.08-.87c.46-2.15,1.06-4.31,1.71-6.48s1.45-4.39,2.28-6.58,1.71-4.37,2.63-6.53c.46-1.08.93-2.16,1.41-3.23l1.44-3.11-10-5.12c-.66,1.25-1.2,2.35-1.74,3.54s-1,2.34-1.54,3.52q-1.48,3.56-2.7,7.21a78,78,0,0,0-3.55,15.3l0,.27,0,.52a7.76,7.76,0,0,0,0,1.08,9.06,9.06,0,0,0,.38,2.14,9.49,9.49,0,0,0,1.88,3.33,14.34,14.34,0,0,0,4.4,3.25,32.46,32.46,0,0,0,8.05,2.58,70.34,70.34,0,0,0,15.39,1.2l.46-5.55A123.23,123.23,0,0,1,149.94,196.68Z" style="fill: rgb(127, 62, 59); transform-origin: 148.371px 184.098px;" id="elh19ae74dzi" class="animable"></path><path d="M165.88,410a9.51,9.51,0,0,1-2-.26.21.21,0,0,1-.13-.13.18.18,0,0,1,.07-.17c.24-.17,2.34-1.6,3.24-1.24a.64.64,0,0,1,.4.48,1,1,0,0,1-.22.93A2,2,0,0,1,165.88,410Zm-1.52-.5c1.33.26,2.32.22,2.67-.12a.66.66,0,0,0,.12-.63.32.32,0,0,0-.19-.24C166.43,408.3,165.11,409,164.36,409.5Z" style="fill: #3B82F6; transform-origin: 165.622px 409.074px;" id="el0tmvuoknckpe" class="animable"></path><path d="M163.94,409.74a.12.12,0,0,1-.08,0,.16.16,0,0,1-.09-.13c0-.09-.17-2.22.58-2.94a.86.86,0,0,1,.72-.24.66.66,0,0,1,.62.52c.17.81-.93,2.35-1.67,2.79Zm1-3a.51.51,0,0,0-.37.15,3.88,3.88,0,0,0-.49,2.37c.61-.52,1.4-1.7,1.28-2.26,0-.11-.08-.23-.34-.26Z" style="fill: #3B82F6; transform-origin: 164.731px 408.084px;" id="elaofgz3is3r6" class="animable"></path><path d="M147.62,405.79a9.23,9.23,0,0,1-3.7-1.43.15.15,0,0,1-.08-.18.18.18,0,0,1,.15-.13c.4,0,3.91-.26,4.57.54a.51.51,0,0,1,.11.49.88.88,0,0,1-.52.62A1.51,1.51,0,0,1,147.62,405.79Zm-3.05-1.44c1.61.89,2.88,1.28,3.45,1a.55.55,0,0,0,.33-.39.2.2,0,0,0,0-.2C147.94,404.36,146,404.29,144.57,404.35Z" style="fill: #3B82F6; transform-origin: 146.263px 404.9px;" id="elfzv1ejp5xh6" class="animable"></path><path d="M144,404.39a.17.17,0,0,1-.14-.08.18.18,0,0,1,0-.16c.06-.12,1.39-2.83,3.1-2,.47.23.51.5.47.69-.17.81-2.39,1.54-3.41,1.57Zm2.31-2.07c-.92,0-1.71,1.17-2,1.71,1.07-.13,2.71-.8,2.81-1.28,0-.1-.08-.21-.3-.32A1.09,1.09,0,0,0,146.31,402.32Z" style="fill: #3B82F6; transform-origin: 145.642px 403.201px;" id="elvdxmfoi9s8" class="animable"></path><path d="M162.51,200.42l6.09-1.67.83,7.69s-6,1.8-7.49-1.35Z" style="fill: rgb(127, 62, 59); transform-origin: 165.685px 202.851px;" id="elrix1xsfvd3d" class="animable"></path><path d="M162.39,200.58a8,8,0,0,0,2.11-5.05l1.56.85s.31,3.45-.3,4.44S162.39,200.58,162.39,200.58Z" style="fill: rgb(127, 62, 59); transform-origin: 164.264px 198.368px;" id="eldh60u2r3htk" class="animable"></path><polygon points="171.45 199.51 171.08 206.44 169.43 206.44 168.59 198.75 171.45 199.51" style="fill: rgb(127, 62, 59); transform-origin: 170.02px 202.595px;" id="elvlctlpumqkm" class="animable"></polygon><polygon points="140.1 388.66 151.17 399.08 154.74 395.25 142.07 383.71 140.1 388.66" style="fill: #3B82F6; transform-origin: 147.42px 391.395px;" id="elqjj74sgiwb" class="animable"></polygon><g id="elrormx8d85yl"><polygon points="140.1 388.66 151.17 399.08 154.74 395.25 142.07 383.71 140.1 388.66" style="opacity: 0.1; transform-origin: 147.42px 391.395px;" class="animable" id="elgf5ssfndnbh"></polygon></g><path d="M174.91,221s.7,56.65-.5,77.88c-1.31,23.24-7.91,100.25-7.91,100.25H152.92s.41-75.13-.41-98.14c-.89-25-3.19-80-3.19-80Z" style="fill: #3B82F6; transform-origin: 162.216px 310.06px;" id="eljzghuezrd5" class="animable"></path><g id="eljrmr61hme9a"><path d="M174.91,221s.7,56.65-.5,77.88c-1.31,23.24-7.91,100.25-7.91,100.25H152.92s.41-75.13-.41-98.14c-.89-25-3.19-80-3.19-80Z" style="opacity: 0.5; transform-origin: 162.216px 310.06px;" class="animable" id="el6dxmjo5cbyk"></path></g><polygon points="152.38 399.13 167.05 399.13 167.86 393.97 151.67 394.78 152.38 399.13" style="fill: #3B82F6; transform-origin: 159.765px 396.55px;" id="elmfv4efzdkxf" class="animable"></polygon><g id="elsg58zqnpji"><polygon points="152.38 399.13 167.05 399.13 167.86 393.97 151.67 394.78 152.38 399.13" style="opacity: 0.1; transform-origin: 159.765px 396.55px;" class="animable" id="elj2vezb6kpk8"></polygon></g><path d="M144.8,156.54c-7,1-14.17,26.71-14.17,26.71l16.87,6.42s4.24-11,7.14-19.63C157.68,161.05,152.29,155.44,144.8,156.54Z" style="fill: #3B82F6; transform-origin: 143.067px 173.036px;" id="eli0adse35rur" class="animable"></path><g id="el6t7kxd1t2kl"><path d="M144.8,156.54c-7,1-14.17,26.71-14.17,26.71l16.87,6.42s4.24-11,7.14-19.63C157.68,161.05,152.29,155.44,144.8,156.54Z" style="fill: rgb(255, 255, 255); opacity: 0.5; transform-origin: 143.067px 173.036px;" class="animable" id="elzfr0o5b55zh"></path></g></g><defs>     <filter id="active" height="200%">         <feMorphology in="SourceAlpha" result="DILATED" operator="dilate" radius="2"></feMorphology>                <feFlood flood-color="#32DFEC" flood-opacity="1" result="PINK"></feFlood>        <feComposite in="PINK" in2="DILATED" operator="in" result="OUTLINE"></feComposite>        <feMerge>            <feMergeNode in="OUTLINE"></feMergeNode>            <feMergeNode in="SourceGraphic"></feMergeNode>        </feMerge>    </filter>    <filter id="hover" height="200%">        <feMorphology in="SourceAlpha" result="DILATED" operator="dilate" radius="2"></feMorphology>                <feFlood flood-color="#ff0000" flood-opacity="0.5" result="PINK"></feFlood>        <feComposite in="PINK" in2="DILATED" operator="in" result="OUTLINE"></feComposite>        <feMerge>            <feMergeNode in="OUTLINE"></feMergeNode>            <feMergeNode in="SourceGraphic"></feMergeNode>        </feMerge>            <feColorMatrix type="matrix" values="0   0   0   0   0                0   1   0   0   0                0   0   0   0   0                0   0   0   1   0 "></feColorMatrix>    </filter></defs></svg>