<svg xmlns="http://www.w3.org/2000/svg" viewBox="0 0 500 500"><g id="freepik--piggy-bank--inject-9"><g id="freepik--piggy-bank--inject-9"><g id="freepik--piggu-bank--inject-9"><path d="M348.76,150.38c17.06-2.7,25.81-11,31.6-21.25,4.23-7.49,5.83-20.51,3.92-30.11a53.49,53.49,0,0,0-5.55-15.38c3-7.82,1.1-16.57-2.73-24.07C371.11,50,361.81,42.9,350.57,44.39c-1.82.24-.49,2,1,2.66,12.89,5.85,16.85,15.62,18,25.45a29.1,29.1,0,0,0-2.81-2c-9.2-5.86-24.13-7.3-34.22-3.15s-11.72,14.12-4.74,22.08c9.42,10.75,27,13.63,39.4,6.9a40,40,0,0,1,1.66,14c-.55,8.91-5.21,16.85-13.83,22.07-2.92,1.77-9.52,3.24-12.93,3-5.88-.48-7.93-.78-13.16-3-2.41-1-4.81.87-5.6,3.16C318.63,149.28,339.58,151.84,348.76,150.38Zm13.58-64.1c-5,2.64-12.28,4-17.55,1.92-3.4-1.31-6-2.63-7.74-4.91-3-4,1.26-5.94,6-5.91C350.8,77.42,357.64,80.15,362.34,86.28Z" style="fill:#10B981"></path><path d="M378.73,83.64a52.36,52.36,0,0,1,4.65,11.61c-4.74,6.22-11.68,8.26-14.6,8.87a40.33,40.33,0,0,0-1.54-7.83C374.66,92,376.66,88.18,378.73,83.64Z" style="opacity:0.2"></path><path d="M362.34,86.28a22.87,22.87,0,0,0-1.87-2.15,20.29,20.29,0,0,0,5.61-4.75c3.31-3.93,3.53-6.88,3.53-6.88C369.89,77.31,366.62,83.92,362.34,86.28Z" style="opacity:0.2"></path><path d="M217.67,358.79c0-.1,0-.2,0-.29l-.05-.31h0c-1-6.8,3-13.83,12-19.14,16.3-9.65,42.91-9.94,59.42-.64,9.08,5.11,13.21,12,12.38,18.88h0l0,.31c0,.09,17.42-2.45,17.42-2.45l-4,4.27a77.57,77.57,0,0,0-19.93,41.34l-2.21,14.77v0l0,.15h0c-.7,4.16-3.78,8.23-9.26,11.48-12.69,7.5-33.38,7.73-46.22.49-5.55-3.12-8.72-7.12-9.51-11.27h0l0-.11s0-.07,0-.11Z" style="fill:#10B981"></path><path d="M217.67,358.79c0-.1,0-.2,0-.29l-.05-.31h0c-1-6.8,3-13.83,12-19.14,16.3-9.65,42.91-9.94,59.42-.64,9.08,5.11,13.21,12,12.38,18.88h0l0,.31c0,.09,17.42-2.45,17.42-2.45l-4,4.27a77.57,77.57,0,0,0-19.93,41.34l-2.21,14.77v0l0,.15h0c-.7,4.16-3.78,8.23-9.26,11.48-12.69,7.5-33.38,7.73-46.22.49-5.55-3.12-8.72-7.12-9.51-11.27h0l0-.11s0-.07,0-.11Z" style="fill:#fff;opacity:0.1"></path><path d="M305,307.1c0-.1,0-.2-.05-.29l-.06-.31h0c-1-6.8,3.12-13.63,12-19.14,6.26-3.9,39-4.25,58-4.46,11.26-.12,17.44-1.32,16.61,5.5h0l0,.31c0,.09,12.36-15.55,12.36-15.55h0A213.34,213.34,0,0,0,384.35,335L380,363.84v0l0,.15h0c-.71,4.16-3.79,8.23-9.27,11.48-12.68,7.5-33.37,7.73-46.22.49-5.54-3.12-8.71-7.12-9.51-11.27h0l0-.11s0-.07,0-.11Z" style="fill:#10B981"></path><path d="M207.56,326.06c0-.1,0-.19,0-.29l.05-.31h0c.83-6.82-3.41-13.56-12.37-18.88-6.34-3.76-39.09-3.4-58-3.2-11.26.12-17.46-.95-16.49,5.86h0l0,.31c0,.09,0,.18,0,.27l13,74.59v0l0,.15h0c.8,4.15,4,8.15,9.51,11.27,12.84,7.23,33.54,7,46.22-.5,5.48-3.24,8.56-7.31,9.27-11.47h0l0-.12s0-.07,0-.1Z" style="fill:#10B981"></path><path d="M207.56,326.06c0-.1,0-.19,0-.29l.05-.31h0c.83-6.82-3.41-13.56-12.37-18.88-6.34-3.76-39.09-3.4-58-3.2-11.26.12-17.46-.95-16.49,5.86h0l0,.31c0,.09,0,.18,0,.27l13,74.59v0l0,.15h0c.8,4.15,4,8.15,9.51,11.27,12.84,7.23,33.54,7,46.22-.5,5.48-3.24,8.56-7.31,9.27-11.47h0l0-.12s0-.07,0-.1Z" style="fill:#10B981"></path><path d="M209.64,111.22c18.53-8.26,43.8-11.68,65.47-11.92A133.93,133.93,0,0,1,410.48,231.77c.53,49.21-25.19,95.37-61.55,123.38-17.49,13.47-43.18,27.35-59.2,33.86-27.31,11.08-44.52,12.27-69.25,12.54A133.92,133.92,0,0,1,85.12,269.08c-.37-33.95,12.23-64.15,32.36-88.32,8.33-10,21.62-25.34,32.14-33.11C170.14,132.51,189.06,120.4,209.64,111.22Z" style="fill:#10B981"></path><path d="M209.64,111.22c18.53-8.26,43.8-11.68,65.47-11.92A133.93,133.93,0,0,1,410.48,231.77c.53,49.21-25.19,95.37-61.55,123.38-17.49,13.47-43.18,27.35-59.2,33.86-27.31,11.08-44.52,12.27-69.25,12.54A133.92,133.92,0,0,1,85.12,269.08c-.37-33.95,12.23-64.15,32.36-88.32,8.33-10,21.62-25.34,32.14-33.11C170.14,132.51,189.06,120.4,209.64,111.22Z" style="fill:#fff;opacity:0.30000000000000004"></path><circle cx="221.1" cy="321.64" r="24.47" style="fill:#10B981;opacity:0.5"></circle><path d="M102.21,260.31a24.47,24.47,0,0,0-13.77-22,130.67,130.67,0,0,0-3.32,30.78A133.9,133.9,0,0,0,86,283.33,24.48,24.48,0,0,0,102.21,260.31Z" style="fill:#10B981;opacity:0.5"></path><path d="M328.79,328.18C380,285.83,410.06,193,368.08,135.45a133.57,133.57,0,0,1,42.4,96.32c.53,49.21-25.19,95.37-61.55,123.38-17.49,13.47-43.18,27.35-59.2,33.86-27.31,11.08-44.52,12.27-69.25,12.54a133.58,133.58,0,0,1-99.3-42.49c-.43-.47-.86-.93-1.28-1.4C195.63,410.93,277.55,370.52,328.79,328.18Z" style="fill:#10B981;opacity:0.30000000000000004"></path><path d="M187.37,159.55l-20.55,12.17c-20.74-5.75-45.43-1.85-60.95,25,0,0-6.07-62.47,1.72-79.84,0,0,4.26-2.51,6-3.54,2.6-1.56,6.82-2.06,11.87-1.24C151,116.3,174.28,137.27,187.37,159.55Z" style="fill:#10B981"></path><path d="M166.82,171.72c-26.85-6.59-47.17,2-60.95,25,0,0-24.46-89.62,13.81-81.22C145.6,121.2,166.82,171.72,166.82,171.72Z" style="fill:#10B981"></path><path d="M166.82,171.72c-26.85-6.59-47.17,2-60.95,25,0,0-24.46-89.62,13.81-81.22C145.6,121.2,166.82,171.72,166.82,171.72Z" style="fill:#fff;opacity:0.2"></path><path d="M128,163.18c24.79-9.4,38.87,8.54,38.87,8.54-26.85-6.59-47.17,2-60.95,25C105.87,196.73,103.16,172.58,128,163.18Z" style="fill:#10B981;opacity:0.5"></path><path d="M208.44,195.15c22.88,20.37,43.51,46.31,58.84,85.33L287,268.91c7.35-7.61,26-71.9-11.54-95.38C250.36,157.85,208.44,195.15,208.44,195.15Z" style="fill:#10B981"></path><path d="M208.44,195.15c27,23.76,46.08,52.56,58.84,85.33,0,0,40.82-72.45,3-103.91C248.19,158.2,208.44,195.15,208.44,195.15Z" style="fill:#10B981"></path><path d="M208.44,195.15c27,23.76,46.08,52.56,58.84,85.33,0,0,40.82-72.45,3-103.91C248.19,158.2,208.44,195.15,208.44,195.15Z" style="fill:#fff;opacity:0.2"></path><path d="M208.44,195.15s22.76-.25,42.67,26.4c18.61,24.93,16.17,58.93,16.17,58.93C254.52,247.71,235.48,218.91,208.44,195.15Z" style="fill:#10B981;opacity:0.5"></path><path d="M110,263.49c8-4.7,19.33-4,32,3.11,24.43,13.75,44.45,46.27,44.74,72.65.13,12.59-4.26,21.49-11.54,25.87-3.51,2.11-17.27,10.27-20.82,12.33-8,4.62-19.28,3.92-31.89-3.18C98.06,360.52,78,328,77.74,301.62,77.61,289,82,280.14,89.26,275.76,92.78,273.64,106.49,265.55,110,263.49Z" style="fill:#10B981"></path><path d="M89.26,275.76c3.52-2.12,17.23-10.21,20.72-12.27,8-4.7,19.33-4,32,3.11,10.18,5.73,19.59,14.73,27.13,25.18L89,339.19C82.12,327,77.87,313.65,77.74,301.62,77.61,289,82,280.14,89.26,275.76Z" style="fill:#fff;opacity:0.2"></path><path d="M182,315.63l-76.74,45.2A103.48,103.48,0,0,1,89,339.19l80.11-47.41A101.6,101.6,0,0,1,182,315.63Z" style="fill:#fff;opacity:0.1"></path><path d="M121.44,278.76c-24.42-13.75-44-3.52-43.7,22.86s20.32,58.9,44.74,72.65,44,3.51,43.7-22.86S145.87,292.51,121.44,278.76Z" style="fill:#10B981"></path><path d="M121.44,278.76c-24.42-13.75-44-3.52-43.7,22.86s20.32,58.9,44.74,72.65,44,3.51,43.7-22.86S145.87,292.51,121.44,278.76Z" style="fill:#10B981"></path><path d="M121.44,278.76c-24.42-13.75-44-3.52-43.7,22.86s20.32,58.9,44.74,72.65,44,3.51,43.7-22.86S145.87,292.51,121.44,278.76Z" style="fill:#fff;opacity:0.30000000000000004"></path><path d="M137.73,352.5h0c3,1.68,5.36-.16,5.32-4.11l-.22-20.12c0-3.95-2.49-8.51-5.47-10.19h0c-3-1.67-5.36.17-5.32,4.11l.22,20.13C132.3,346.26,134.75,350.82,137.73,352.5Z" style="fill:#10B981"></path><path d="M142.83,328.27l.22,20.12a7.42,7.42,0,0,1-.33,2.34,5,5,0,0,1-1.18-.49c-3-1.68-5.43-6.23-5.47-10.18l-.22-20.12a7.42,7.42,0,0,1,.33-2.34,5.43,5.43,0,0,1,1.18.48C140.34,319.76,142.79,324.32,142.83,328.27Z" style="fill:#10B981"></path><path d="M142.83,328.27l.22,20.12a7.42,7.42,0,0,1-.33,2.34,5,5,0,0,1-1.18-.49c-3-1.68-5.43-6.23-5.47-10.18l-.22-20.12a7.42,7.42,0,0,1,.33-2.34,5.43,5.43,0,0,1,1.18.48C140.34,319.76,142.79,324.32,142.83,328.27Z" style="opacity:0.15"></path><path d="M106.56,334.94h0c3,1.68,5.36-.16,5.32-4.11l-.22-20.12c0-3.95-2.49-8.5-5.47-10.18h0c-3-1.68-5.36.16-5.31,4.11l.21,20.12C101.14,328.71,103.59,333.27,106.56,334.94Z" style="fill:#10B981"></path><path d="M111.66,310.71l.22,20.12a7.14,7.14,0,0,1-.33,2.34,5.17,5.17,0,0,1-1.17-.48c-3-1.68-5.43-6.24-5.47-10.19l-.22-20.12A7.18,7.18,0,0,1,105,300a4.79,4.79,0,0,1,1.17.49C109.17,302.21,111.62,306.76,111.66,310.71Z" style="fill:#10B981"></path><path d="M111.66,310.71l.22,20.12a7.14,7.14,0,0,1-.33,2.34,5.17,5.17,0,0,1-1.17-.48c-3-1.68-5.43-6.24-5.47-10.19l-.22-20.12A7.18,7.18,0,0,1,105,300a4.79,4.79,0,0,1,1.17.49C109.17,302.21,111.62,306.76,111.66,310.71Z" style="opacity:0.15"></path><path d="M157.56,370.42c10.94-15.4,3.45-47.34-9.08-66.61,10.61,14.65,17.53,32.17,17.7,47.6.28,26.37-19.28,36.61-43.7,22.86a83.42,83.42,0,0,1-22-18.66C116,373.77,145.88,386.87,157.56,370.42Z" style="fill:#fff;opacity:0.30000000000000004"></path><path d="M187.9,270.08c-1.47,5.52,4.47,1.19,10,2.65s8.53,8.18,10,2.66a10.34,10.34,0,1,0-20-5.31Z" style="fill:#263238"></path><path d="M113,232c-3.34,4.63,3.75,2.71,8.38,6.06s5,10.68,8.39,6A10.34,10.34,0,0,0,113,232Z" style="fill:#263238"></path><polygon points="223.15 162.04 269.38 134.67 258.98 128.81 212.74 156.18 223.15 162.04" style="fill:#10B981"></polygon><polygon points="223.15 162.04 269.38 134.67 258.98 128.81 212.74 156.18 223.15 162.04" style="opacity:0.2"></polygon><polygon points="258.98 128.81 259.04 134.78 217.95 159.11 212.74 156.18 258.98 128.81" style="fill:#10B981"></polygon><polygon points="258.98 128.81 259.04 134.78 264.25 137.72 269.38 134.67 258.98 128.81" style="opacity:0.2"></polygon></g><g id="freepik--Cash--inject-9"><polygon points="261.45 58.91 260.57 94 220.26 93.56 219.01 81.79 261.45 58.91" style="fill:#455a64"></polygon><path d="M220.26,93.56,219,81.79s23.3-.42,39-16.9c9.22-9.71-1.06-12.36-16.64-8.22s-45.17,17.19-43.68,27.1C199.34,95,220.26,93.56,220.26,93.56Z" style="fill:#37474f"></path><path d="M223.15,162l-5.56-3.13L197.65,83.77c.56,3.5,12,7.92,23.71,7.45C253.53,89.94,274.82,61,274.82,61L267,136.06Z" style="fill:#455a64"></path><path d="M209.29,127.64c9.31,3,19.4.64,27.93,8.42a18.16,18.16,0,0,1,6.09,14.05L223.15,162l-5.56-3.13Z" style="fill:#37474f"></path><path d="M220.23,100.57c-2.37.11-12,.57-19.51-5.26l.83,3.16c8.18,5,16.24,4.24,18.76,4.12,18.85-.75,34.11-9.88,44.09-18l-5.9,56.56,2.16-1.28,6.27-60.08L265,81.42C255.35,89.73,239.75,99.8,220.23,100.57Z" style="fill:#e0e0e0"></path><path d="M197.65,83.77a4,4,0,0,0,1.65,2.15,14.63,14.63,0,0,0,2.37,1.43,30.8,30.8,0,0,0,5.2,1.9,47.58,47.58,0,0,0,10.93,1.63A58.6,58.6,0,0,0,239.43,87,77.08,77.08,0,0,0,258.7,76.24a91.88,91.88,0,0,0,8.49-7.14A87.1,87.1,0,0,0,274.82,61,83.3,83.3,0,0,1,259.2,76.89a73.94,73.94,0,0,1-19.43,11,56.57,56.57,0,0,1-22,3.64,45.3,45.3,0,0,1-11-1.91,30.18,30.18,0,0,1-5.18-2.09A13.93,13.93,0,0,1,199.22,86,4.11,4.11,0,0,1,197.65,83.77Z" style="fill:#263238"></path><path d="M252.18,102.61a4,4,0,0,1,1.74-.15,2.62,2.62,0,0,1,1.23.54,2.42,2.42,0,0,1,.71,1,3.23,3.23,0,0,1,.24,1.22,1,1,0,0,1-.18.6,1.07,1.07,0,0,1-.41.41l-1.45.74a.65.65,0,0,1-.52.1.81.81,0,0,1-.3-.31,1.41,1.41,0,0,0-.88-.69,2.91,2.91,0,0,0-1.85.47,6,6,0,0,0-1,.67,5.51,5.51,0,0,0-.87.87,4.37,4.37,0,0,0-.61,1,2.93,2.93,0,0,0-.25,1,1.36,1.36,0,0,0,.18.89.87.87,0,0,0,.7.29,5.08,5.08,0,0,0,1.28-.14l1.9-.43a8.17,8.17,0,0,1,2.06-.26,2.38,2.38,0,0,1,1.35.41,1.85,1.85,0,0,1,.71,1.11,6,6,0,0,1,.14,1.84,7.58,7.58,0,0,1-.41,2.11,9.5,9.5,0,0,1-1,2.1,11.86,11.86,0,0,1-1.5,1.94,12.11,12.11,0,0,1-2,1.66l-.09,1.82a1.4,1.4,0,0,1-.19.6,1,1,0,0,1-.41.41l-1.67.86a.33.33,0,0,1-.39,0,.51.51,0,0,1-.14-.43l.1-1.82a5.22,5.22,0,0,1-1.72.26,2.88,2.88,0,0,1-1.38-.35,2.32,2.32,0,0,1-.9-1,3.56,3.56,0,0,1-.32-1.66,1,1,0,0,1,.18-.6,1.14,1.14,0,0,1,.41-.41l1.45-.74a.69.69,0,0,1,.53-.11.52.52,0,0,1,.29.32,2.61,2.61,0,0,0,.32.52.94.94,0,0,0,.52.33,2.08,2.08,0,0,0,.86,0,4.91,4.91,0,0,0,1.31-.5,9.38,9.38,0,0,0,1.2-.73,6.64,6.64,0,0,0,1-.92,5.63,5.63,0,0,0,.74-1.06,2.84,2.84,0,0,0,.32-1.17,1,1,0,0,0-.24-.82,1.17,1.17,0,0,0-.85-.19,8.83,8.83,0,0,0-1.43.23c-.57.14-1.24.28-2,.42A7.37,7.37,0,0,1,247,115a2,2,0,0,1-1.22-.43,2.07,2.07,0,0,1-.68-1.13,6.3,6.3,0,0,1-.14-1.95,7.65,7.65,0,0,1,.4-2.09,11.33,11.33,0,0,1,.94-2,10.73,10.73,0,0,1,1.38-1.85,11.34,11.34,0,0,1,1.71-1.54l.09-1.83a1.28,1.28,0,0,1,.19-.59,1,1,0,0,1,.41-.42l1.67-.85a.33.33,0,0,1,.39,0,.5.5,0,0,1,.14.42Z" style="fill:#e0e0e0"></path></g><path d="M184.54,78.31a1.79,1.79,0,0,1-2.25,1.18l-16.61-5.15a1.8,1.8,0,0,1,1.07-3.44l16.6,5.16A1.8,1.8,0,0,1,184.54,78.31Z" style="fill:#e0e0e0"></path><path d="M181.67,96.87A1.78,1.78,0,0,1,180.26,98l-17.2,2.57a1.8,1.8,0,0,1-.53-3.56l17.2-2.56a1.8,1.8,0,0,1,1.94,2.43Z" style="fill:#e0e0e0"></path><path d="M207.09,53.26a1.8,1.8,0,0,1-3.47.19l-5.43-16.52a1.8,1.8,0,0,1,3.42-1.12L207,52.33A1.74,1.74,0,0,1,207.09,53.26Z" style="fill:#e0e0e0"></path><path d="M193.67,62a1.79,1.79,0,0,1-2.95,1l-13-11.56a1.8,1.8,0,0,1,2.39-2.69l13,11.56A1.78,1.78,0,0,1,193.67,62Z" style="fill:#e0e0e0"></path></g></g></svg>