<svg xmlns="http://www.w3.org/2000/svg" viewBox="0 0 500 500"><g id="freepik--Safe--inject-1"><path d="M131.91,186.65l-.89-.46a142.15,142.15,0,0,1,30.8-40.29l.68.74A141.17,141.17,0,0,0,131.91,186.65Z" style="fill:#10B981"></path><path d="M119.39,222.35l-1-.2a141.67,141.67,0,0,1,5.94-20.79l.94.35A139.64,139.64,0,0,0,119.39,222.35Z" style="fill:#10B981"></path><circle cx="257.01" cy="250.43" r="113.09" transform="translate(-101.8 255.08) rotate(-45)" style="fill:#fafafa;opacity:0.9"></circle><g style="opacity:0.4"><polygon points="176.99 313.68 150.4 313.68 155.54 301.06 171.85 301.06 176.99 313.68" style="fill:#10B981"></polygon><polygon points="176.99 313.68 150.4 313.68 155.54 301.06 171.85 301.06 176.99 313.68" style="fill:#fafafa;opacity:0.2"></polygon><polygon points="217.4 313.68 176.99 313.68 171.85 301.06 212.26 301.06 217.4 313.68" style="fill:#10B981"></polygon><polygon points="217.4 313.68 176.99 313.68 171.85 301.06 212.26 301.06 217.4 313.68" style="opacity:0.30000000000000004"></polygon><polygon points="210.93 313.68 184.33 313.68 189.47 301.06 205.79 301.06 210.93 313.68" style="fill:#10B981"></polygon><polygon points="210.93 313.68 184.33 313.68 189.47 301.06 205.79 301.06 210.93 313.68" style="fill:#fafafa;opacity:0.2"></polygon><polygon points="251.33 313.68 210.93 313.68 205.79 301.06 246.19 301.06 251.33 313.68" style="fill:#10B981"></polygon><polygon points="251.33 313.68 210.93 313.68 205.79 301.06 246.19 301.06 251.33 313.68" style="opacity:0.30000000000000004"></polygon><polygon points="244.86 313.68 218.27 313.68 223.41 301.06 239.72 301.06 244.86 313.68" style="fill:#10B981"></polygon><polygon points="244.86 313.68 218.27 313.68 223.41 301.06 239.72 301.06 244.86 313.68" style="fill:#fafafa;opacity:0.2"></polygon><polygon points="285.26 313.68 244.86 313.68 239.72 301.06 280.13 301.06 285.26 313.68" style="fill:#10B981"></polygon><polygon points="285.26 313.68 244.86 313.68 239.72 301.06 280.13 301.06 285.26 313.68" style="opacity:0.30000000000000004"></polygon><polygon points="278.79 313.68 252.2 313.68 257.34 301.06 273.65 301.06 278.79 313.68" style="fill:#10B981"></polygon><polygon points="278.79 313.68 252.2 313.68 257.34 301.06 273.65 301.06 278.79 313.68" style="fill:#fafafa;opacity:0.2"></polygon><polygon points="319.2 313.68 278.79 313.68 273.65 301.06 314.06 301.06 319.2 313.68" style="fill:#10B981"></polygon><polygon points="319.2 313.68 278.79 313.68 273.65 301.06 314.06 301.06 319.2 313.68" style="opacity:0.30000000000000004"></polygon><polygon points="312.73 313.68 286.13 313.68 291.27 301.06 307.59 301.06 312.73 313.68" style="fill:#10B981"></polygon><polygon points="312.73 313.68 286.13 313.68 291.27 301.06 307.59 301.06 312.73 313.68" style="fill:#fafafa;opacity:0.2"></polygon><path d="M334.29,313.68q1.93-6.27,3.5-12.62h-30.2l5.14,12.62Z" style="fill:#10B981"></path><path d="M334.29,313.68q1.93-6.27,3.5-12.62h-30.2l5.14,12.62Z" style="opacity:0.30000000000000004"></path><path d="M337.79,301.06H325.21l-5.14,12.62h14.22Q336.23,307.41,337.79,301.06Z" style="fill:#10B981"></path><path d="M337.79,301.06H325.21l-5.14,12.62h14.22Q336.23,307.41,337.79,301.06Z" style="fill:#fafafa;opacity:0.2"></path><polygon points="187.36 301.06 160.76 301.06 165.9 288.43 182.22 288.43 187.36 301.06" style="fill:#10B981"></polygon><polygon points="187.36 301.06 160.76 301.06 165.9 288.43 182.22 288.43 187.36 301.06" style="fill:#fafafa;opacity:0.2"></polygon><polygon points="227.76 301.06 187.36 301.06 182.22 288.43 222.62 288.43 227.76 301.06" style="fill:#10B981"></polygon><polygon points="227.76 301.06 187.36 301.06 182.22 288.43 222.62 288.43 227.76 301.06" style="opacity:0.30000000000000004"></polygon><polygon points="221.29 301.06 194.7 301.06 199.84 288.43 216.15 288.43 221.29 301.06" style="fill:#10B981"></polygon><polygon points="221.29 301.06 194.7 301.06 199.84 288.43 216.15 288.43 221.29 301.06" style="fill:#fafafa;opacity:0.2"></polygon><polygon points="261.69 301.06 221.29 301.06 216.15 288.43 256.56 288.43 261.69 301.06" style="fill:#10B981"></polygon><polygon points="261.69 301.06 221.29 301.06 216.15 288.43 256.56 288.43 261.69 301.06" style="opacity:0.30000000000000004"></polygon><polygon points="255.22 301.06 228.63 301.06 233.77 288.43 250.08 288.43 255.22 301.06" style="fill:#10B981"></polygon><polygon points="255.22 301.06 228.63 301.06 233.77 288.43 250.08 288.43 255.22 301.06" style="fill:#fafafa;opacity:0.2"></polygon><polygon points="295.63 301.06 255.22 301.06 250.08 288.43 290.49 288.43 295.63 301.06" style="fill:#10B981"></polygon><polygon points="295.63 301.06 255.22 301.06 250.08 288.43 290.49 288.43 295.63 301.06" style="opacity:0.30000000000000004"></polygon><polygon points="289.16 301.06 262.56 301.06 267.7 288.43 284.02 288.43 289.16 301.06" style="fill:#10B981"></polygon><polygon points="289.16 301.06 262.56 301.06 267.7 288.43 284.02 288.43 289.16 301.06" style="fill:#fafafa;opacity:0.2"></polygon><polygon points="329.56 301.06 289.16 301.06 284.02 288.43 324.42 288.43 329.56 301.06" style="fill:#10B981"></polygon><polygon points="329.56 301.06 289.16 301.06 284.02 288.43 324.42 288.43 329.56 301.06" style="opacity:0.30000000000000004"></polygon><polygon points="323.09 301.06 296.5 301.06 301.64 288.43 317.95 288.43 323.09 301.06" style="fill:#10B981"></polygon><polygon points="323.09 301.06 296.5 301.06 301.64 288.43 317.95 288.43 323.09 301.06" style="fill:#fafafa;opacity:0.2"></polygon><path d="M337.79,301.06c1-4.19,1.95-8.39,2.73-12.63H318l5.14,12.63Z" style="fill:#10B981"></path><path d="M337.79,301.06c1-4.19,1.95-8.39,2.73-12.63H318l5.14,12.63Z" style="opacity:0.30000000000000004"></path><path d="M340.52,288.43h-4.95l-5.14,12.63h7.36C338.82,296.87,339.74,292.67,340.52,288.43Z" style="fill:#10B981"></path><path d="M340.52,288.43h-4.95l-5.14,12.63h7.36C338.82,296.87,339.74,292.67,340.52,288.43Z" style="fill:#fafafa;opacity:0.2"></path><polygon points="196.24 288.43 169.65 288.43 174.79 275.81 191.1 275.81 196.24 288.43" style="fill:#10B981"></polygon><polygon points="196.24 288.43 169.65 288.43 174.79 275.81 191.1 275.81 196.24 288.43" style="fill:#fafafa;opacity:0.2"></polygon><polygon points="236.65 288.43 196.24 288.43 191.1 275.81 231.51 275.81 236.65 288.43" style="fill:#10B981"></polygon><polygon points="236.65 288.43 196.24 288.43 191.1 275.81 231.51 275.81 236.65 288.43" style="opacity:0.30000000000000004"></polygon><polygon points="230.18 288.43 203.58 288.43 208.72 275.81 225.03 275.81 230.18 288.43" style="fill:#10B981"></polygon><polygon points="230.18 288.43 203.58 288.43 208.72 275.81 225.03 275.81 230.18 288.43" style="fill:#fafafa;opacity:0.2"></polygon><polygon points="270.58 288.43 230.18 288.43 225.03 275.81 265.44 275.81 270.58 288.43" style="fill:#10B981"></polygon><polygon points="270.58 288.43 230.18 288.43 225.03 275.81 265.44 275.81 270.58 288.43" style="opacity:0.30000000000000004"></polygon><polygon points="264.11 288.43 237.52 288.43 242.66 275.81 258.97 275.81 264.11 288.43" style="fill:#10B981"></polygon><polygon points="264.11 288.43 237.52 288.43 242.66 275.81 258.97 275.81 264.11 288.43" style="fill:#fafafa;opacity:0.2"></polygon><polygon points="304.51 288.43 264.11 288.43 258.97 275.81 299.37 275.81 304.51 288.43" style="fill:#10B981"></polygon><polygon points="304.51 288.43 264.11 288.43 258.97 275.81 299.37 275.81 304.51 288.43" style="opacity:0.30000000000000004"></polygon><polygon points="298.04 288.43 271.45 288.43 276.59 275.81 292.9 275.81 298.04 288.43" style="fill:#10B981"></polygon><polygon points="298.04 288.43 271.45 288.43 276.59 275.81 292.9 275.81 298.04 288.43" style="fill:#fafafa;opacity:0.2"></polygon><polygon points="338.45 288.43 298.04 288.43 292.9 275.81 333.31 275.81 338.45 288.43" style="fill:#10B981"></polygon><polygon points="338.45 288.43 298.04 288.43 292.9 275.81 333.31 275.81 338.45 288.43" style="opacity:0.30000000000000004"></polygon><polygon points="331.98 288.43 305.38 288.43 310.52 275.81 326.84 275.81 331.98 288.43" style="fill:#10B981"></polygon><polygon points="331.98 288.43 305.38 288.43 310.52 275.81 326.84 275.81 331.98 288.43" style="fill:#fafafa;opacity:0.2"></polygon><path d="M340.52,288.43q1.17-6.27,2-12.62H326.84L332,288.43Z" style="fill:#10B981"></path><path d="M340.52,288.43q1.17-6.27,2-12.62H326.84L332,288.43Z" style="opacity:0.30000000000000004"></path><path d="M341.41,283.29l-2.09,5.14h1.2Q341,285.87,341.41,283.29Z" style="fill:#10B981"></path><path d="M341.41,283.29l-2.09,5.14h1.2Q341,285.87,341.41,283.29Z" style="fill:#fafafa;opacity:0.2"></path><polygon points="206.6 275.81 180.01 275.81 185.15 263.19 201.47 263.19 206.6 275.81" style="fill:#10B981"></polygon><polygon points="206.6 275.81 180.01 275.81 185.15 263.19 201.47 263.19 206.6 275.81" style="fill:#fafafa;opacity:0.2"></polygon><polygon points="247.01 275.81 206.6 275.81 201.47 263.19 241.87 263.19 247.01 275.81" style="fill:#10B981"></polygon><polygon points="247.01 275.81 206.6 275.81 201.47 263.19 241.87 263.19 247.01 275.81" style="opacity:0.30000000000000004"></polygon><polygon points="240.54 275.81 213.95 275.81 219.09 263.19 235.4 263.19 240.54 275.81" style="fill:#10B981"></polygon><polygon points="240.54 275.81 213.95 275.81 219.09 263.19 235.4 263.19 240.54 275.81" style="fill:#fafafa;opacity:0.2"></polygon><polygon points="280.94 275.81 240.54 275.81 235.4 263.19 275.81 263.19 280.94 275.81" style="fill:#10B981"></polygon><polygon points="280.94 275.81 240.54 275.81 235.4 263.19 275.81 263.19 280.94 275.81" style="opacity:0.30000000000000004"></polygon><polygon points="274.47 275.81 247.88 275.81 253.02 263.19 269.33 263.19 274.47 275.81" style="fill:#10B981"></polygon><polygon points="274.47 275.81 247.88 275.81 253.02 263.19 269.33 263.19 274.47 275.81" style="fill:#fafafa;opacity:0.2"></polygon><polygon points="314.88 275.81 274.47 275.81 269.33 263.19 309.74 263.19 314.88 275.81" style="fill:#10B981"></polygon><polygon points="314.88 275.81 274.47 275.81 269.33 263.19 309.74 263.19 314.88 275.81" style="opacity:0.30000000000000004"></polygon><polygon points="308.41 275.81 281.81 275.81 286.95 263.19 303.27 263.19 308.41 275.81" style="fill:#10B981"></polygon><polygon points="308.41 275.81 281.81 275.81 286.95 263.19 303.27 263.19 308.41 275.81" style="fill:#fafafa;opacity:0.2"></polygon><path d="M342.48,275.81q.78-6.29,1.15-12.62H303.27l5.14,12.62Z" style="fill:#10B981"></path><path d="M342.48,275.81q.78-6.29,1.15-12.62H303.27l5.14,12.62Z" style="opacity:0.30000000000000004"></path><polygon points="342.34 275.81 315.75 275.81 320.89 263.19 337.2 263.19 342.34 275.81" style="fill:#10B981"></polygon><polygon points="342.34 275.81 315.75 275.81 320.89 263.19 337.2 263.19 342.34 275.81" style="fill:#fafafa;opacity:0.2"></polygon><path d="M342.48,275.81q.78-6.29,1.15-12.62H337.2l5.14,12.62Z" style="fill:#10B981"></path><path d="M342.48,275.81q.78-6.29,1.15-12.62H337.2l5.14,12.62Z" style="opacity:0.30000000000000004"></path><path d="M200.71,364.17h9.08l-5.14-12.62H184.51A132.76,132.76,0,0,1,200.71,364.17Z" style="fill:#10B981"></path><path d="M200.71,364.17h9.08l-5.14-12.62H184.51A132.76,132.76,0,0,1,200.71,364.17Z" style="opacity:0.30000000000000004"></path><path d="M200.71,364.17h2.61l-5.14-12.62H184.51A132.76,132.76,0,0,1,200.71,364.17Z" style="fill:#10B981"></path><path d="M200.71,364.17h2.61l-5.14-12.62H184.51A132.76,132.76,0,0,1,200.71,364.17Z" style="fill:#fafafa;opacity:0.2"></path><polygon points="243.72 364.17 203.32 364.17 198.18 351.55 238.58 351.55 243.72 364.17" style="fill:#10B981"></polygon><polygon points="243.72 364.17 203.32 364.17 198.18 351.55 238.58 351.55 243.72 364.17" style="opacity:0.30000000000000004"></polygon><polygon points="237.25 364.17 210.66 364.17 215.8 351.55 232.11 351.55 237.25 364.17" style="fill:#10B981"></polygon><polygon points="237.25 364.17 210.66 364.17 215.8 351.55 232.11 351.55 237.25 364.17" style="fill:#fafafa;opacity:0.2"></polygon><polygon points="277.65 364.17 237.25 364.17 232.11 351.55 272.51 351.55 277.65 364.17" style="fill:#10B981"></polygon><polygon points="277.65 364.17 237.25 364.17 232.11 351.55 272.51 351.55 277.65 364.17" style="opacity:0.30000000000000004"></polygon><polygon points="271.18 364.17 244.59 364.17 249.73 351.55 266.04 351.55 271.18 364.17" style="fill:#10B981"></polygon><polygon points="271.18 364.17 244.59 364.17 249.73 351.55 266.04 351.55 271.18 364.17" style="fill:#fafafa;opacity:0.2"></polygon><path d="M311.37,363.63l-4.92-12.08H266l5.14,12.62h39.63C311,364,311.18,363.81,311.37,363.63Z" style="fill:#10B981"></path><path d="M311.37,363.63l-4.92-12.08H266l5.14,12.62h39.63C311,364,311.18,363.81,311.37,363.63Z" style="opacity:0.30000000000000004"></path><polygon points="305.12 364.17 278.52 364.17 283.66 351.55 299.98 351.55 305.12 364.17" style="fill:#10B981"></polygon><polygon points="305.12 364.17 278.52 364.17 283.66 351.55 299.98 351.55 305.12 364.17" style="fill:#fafafa;opacity:0.2"></polygon><path d="M310.81,364.17a47.06,47.06,0,0,0,9.13-12.62H300l5.14,12.62Z" style="fill:#10B981"></path><path d="M310.81,364.17a47.06,47.06,0,0,0,9.13-12.62H300l5.14,12.62Z" style="opacity:0.30000000000000004"></path><path d="M319.94,351.55H317.6l-3.88,9.52A53.12,53.12,0,0,0,319.94,351.55Z" style="fill:#10B981"></path><path d="M319.94,351.55H317.6l-3.88,9.52A53.12,53.12,0,0,0,319.94,351.55Z" style="fill:#fafafa;opacity:0.2"></path><path d="M169.32,340.34c4.81,4.07,10,7.62,15.19,11.21h1.71l-5.14-12.62H167.69C168.23,339.4,168.77,339.88,169.32,340.34Z" style="fill:#10B981"></path><path d="M169.32,340.34c4.81,4.07,10,7.62,15.19,11.21h1.71l-5.14-12.62H167.69C168.23,339.4,168.77,339.88,169.32,340.34Z" style="opacity:0.30000000000000004"></path><path d="M169.32,340.34c2.74,2.32,5.61,4.47,8.53,6.55l-3.24-8h-6.92C168.23,339.4,168.77,339.88,169.32,340.34Z" style="fill:#10B981"></path><path d="M169.32,340.34c2.74,2.32,5.61,4.47,8.53,6.55l-3.24-8h-6.92C168.23,339.4,168.77,339.88,169.32,340.34Z" style="fill:#fafafa;opacity:0.2"></path><path d="M184.51,351.55h35.64L215,338.93h-40.4l3.24,8C180.05,348.47,182.29,350,184.51,351.55Z" style="fill:#10B981"></path><path d="M184.51,351.55h35.64L215,338.93h-40.4l3.24,8C180.05,348.47,182.29,350,184.51,351.55Z" style="opacity:0.30000000000000004"></path><polygon points="213.68 351.55 187.09 351.55 192.23 338.93 208.54 338.93 213.68 351.55" style="fill:#10B981"></polygon><polygon points="213.68 351.55 187.09 351.55 192.23 338.93 208.54 338.93 213.68 351.55" style="fill:#fafafa;opacity:0.2"></polygon><polygon points="254.09 351.55 213.68 351.55 208.54 338.93 248.95 338.93 254.09 351.55" style="fill:#10B981"></polygon><polygon points="254.09 351.55 213.68 351.55 208.54 338.93 248.95 338.93 254.09 351.55" style="opacity:0.30000000000000004"></polygon><polygon points="247.61 351.55 221.02 351.55 226.16 338.93 242.47 338.93 247.61 351.55" style="fill:#10B981"></polygon><polygon points="247.61 351.55 221.02 351.55 226.16 338.93 242.47 338.93 247.61 351.55" style="fill:#fafafa;opacity:0.2"></polygon><polygon points="288.02 351.55 247.61 351.55 242.47 338.93 282.88 338.93 288.02 351.55" style="fill:#10B981"></polygon><polygon points="288.02 351.55 247.61 351.55 242.47 338.93 282.88 338.93 288.02 351.55" style="opacity:0.30000000000000004"></polygon><polygon points="281.55 351.55 254.96 351.55 260.1 338.93 276.41 338.93 281.55 351.55" style="fill:#10B981"></polygon><polygon points="281.55 351.55 254.96 351.55 260.1 338.93 276.41 338.93 281.55 351.55" style="fill:#fafafa;opacity:0.2"></polygon><path d="M321.05,349.35l-4.24-10.42h-40.4l5.14,12.62h38.39C320.33,350.82,320.69,350.09,321.05,349.35Z" style="fill:#10B981"></path><path d="M321.05,349.35l-4.24-10.42h-40.4l5.14,12.62h38.39C320.33,350.82,320.69,350.09,321.05,349.35Z" style="opacity:0.30000000000000004"></path><polygon points="315.48 351.55 288.89 351.55 294.03 338.93 310.34 338.93 315.48 351.55" style="fill:#10B981"></polygon><polygon points="315.48 351.55 288.89 351.55 294.03 338.93 310.34 338.93 315.48 351.55" style="fill:#fafafa;opacity:0.2"></polygon><path d="M319.94,351.55a114.32,114.32,0,0,0,5.52-12.62H310.34l5.14,12.62Z" style="fill:#10B981"></path><path d="M319.94,351.55a114.32,114.32,0,0,0,5.52-12.62H310.34l5.14,12.62Z" style="opacity:0.30000000000000004"></path><path d="M167.69,338.93H195.1L190,326.3H155.57A107.08,107.08,0,0,0,167.69,338.93Z" style="fill:#10B981"></path><path d="M167.69,338.93H195.1L190,326.3H155.57A107.08,107.08,0,0,0,167.69,338.93Z" style="opacity:0.30000000000000004"></path><path d="M167.69,338.93h20.94l-5.14-12.63H167.18l-3.59,8.81Q165.58,337.08,167.69,338.93Z" style="fill:#10B981"></path><path d="M167.69,338.93h20.94l-5.14-12.63H167.18l-3.59,8.81Q165.58,337.08,167.69,338.93Z" style="fill:#fafafa;opacity:0.2"></path><polygon points="229.04 338.93 188.63 338.93 183.49 326.3 223.9 326.3 229.04 338.93" style="fill:#10B981"></polygon><polygon points="229.04 338.93 188.63 338.93 183.49 326.3 223.9 326.3 229.04 338.93" style="opacity:0.30000000000000004"></polygon><polygon points="222.56 338.93 195.97 338.93 201.11 326.3 217.43 326.3 222.56 338.93" style="fill:#10B981"></polygon><polygon points="222.56 338.93 195.97 338.93 201.11 326.3 217.43 326.3 222.56 338.93" style="fill:#fafafa;opacity:0.2"></polygon><polygon points="262.97 338.93 222.56 338.93 217.43 326.3 257.83 326.3 262.97 338.93" style="fill:#10B981"></polygon><polygon points="262.97 338.93 222.56 338.93 217.43 326.3 257.83 326.3 262.97 338.93" style="opacity:0.30000000000000004"></polygon><polygon points="256.5 338.93 229.91 338.93 235.05 326.3 251.36 326.3 256.5 338.93" style="fill:#10B981"></polygon><polygon points="256.5 338.93 229.91 338.93 235.05 326.3 251.36 326.3 256.5 338.93" style="fill:#fafafa;opacity:0.2"></polygon><polygon points="296.9 338.93 256.5 338.93 251.36 326.3 291.76 326.3 296.9 338.93" style="fill:#10B981"></polygon><polygon points="296.9 338.93 256.5 338.93 251.36 326.3 291.76 326.3 296.9 338.93" style="opacity:0.30000000000000004"></polygon><polygon points="290.43 338.93 263.84 338.93 268.98 326.3 285.29 326.3 290.43 338.93" style="fill:#10B981"></polygon><polygon points="290.43 338.93 263.84 338.93 268.98 326.3 285.29 326.3 290.43 338.93" style="fill:#fafafa;opacity:0.2"></polygon><path d="M328,331.94l-2.29-5.64H285.29l5.14,12.63h35C326.36,336.55,327.19,334.2,328,331.94Z" style="fill:#10B981"></path><path d="M328,331.94l-2.29-5.64H285.29l5.14,12.63h35C326.36,336.55,327.19,334.2,328,331.94Z" style="opacity:0.30000000000000004"></path><polygon points="324.37 338.93 297.77 338.93 302.91 326.3 319.23 326.3 324.37 338.93" style="fill:#10B981"></polygon><polygon points="324.37 338.93 297.77 338.93 302.91 326.3 319.23 326.3 324.37 338.93" style="fill:#fafafa;opacity:0.2"></polygon><path d="M325.46,338.93c1.65-4.37,3.09-8.64,4.49-12.42a1.72,1.72,0,0,1,.07-.21H319.23l5.14,12.63Z" style="fill:#10B981"></path><path d="M325.46,338.93c1.65-4.37,3.09-8.64,4.49-12.42a1.72,1.72,0,0,1,.07-.21H319.23l5.14,12.63Z" style="opacity:0.30000000000000004"></path><path d="M155.57,326.3h9.49l-5.14-12.62H146.66A111.23,111.23,0,0,0,155.57,326.3Z" style="fill:#10B981"></path><path d="M155.57,326.3h9.49l-5.14-12.62H146.66A111.23,111.23,0,0,0,155.57,326.3Z" style="fill:#fafafa;opacity:0.2"></path><polygon points="205.47 326.3 165.06 326.3 159.92 313.68 200.33 313.68 205.47 326.3" style="fill:#10B981"></polygon><polygon points="205.47 326.3 165.06 326.3 159.92 313.68 200.33 313.68 205.47 326.3" style="opacity:0.30000000000000004"></polygon><polygon points="199 326.3 172.4 326.3 177.54 313.68 193.86 313.68 199 326.3" style="fill:#10B981"></polygon><polygon points="199 326.3 172.4 326.3 177.54 313.68 193.86 313.68 199 326.3" style="fill:#fafafa;opacity:0.2"></polygon><polygon points="239.4 326.3 199 326.3 193.86 313.68 234.26 313.68 239.4 326.3" style="fill:#10B981"></polygon><polygon points="239.4 326.3 199 326.3 193.86 313.68 234.26 313.68 239.4 326.3" style="opacity:0.30000000000000004"></polygon><polygon points="232.93 326.3 206.34 326.3 211.48 313.68 227.79 313.68 232.93 326.3" style="fill:#10B981"></polygon><polygon points="232.93 326.3 206.34 326.3 211.48 313.68 227.79 313.68 232.93 326.3" style="fill:#fafafa;opacity:0.2"></polygon><polygon points="273.33 326.3 232.93 326.3 227.79 313.68 268.19 313.68 273.33 326.3" style="fill:#10B981"></polygon><polygon points="273.33 326.3 232.93 326.3 227.79 313.68 268.19 313.68 273.33 326.3" style="opacity:0.30000000000000004"></polygon><polygon points="266.86 326.3 240.27 326.3 245.41 313.68 261.72 313.68 266.86 326.3" style="fill:#10B981"></polygon><polygon points="266.86 326.3 240.27 326.3 245.41 313.68 261.72 313.68 266.86 326.3" style="fill:#fafafa;opacity:0.2"></polygon><polygon points="307.27 326.3 266.86 326.3 261.72 313.68 302.13 313.68 307.27 326.3" style="fill:#10B981"></polygon><polygon points="307.27 326.3 266.86 326.3 261.72 313.68 302.13 313.68 307.27 326.3" style="opacity:0.30000000000000004"></polygon><polygon points="300.8 326.3 274.2 326.3 279.34 313.68 295.66 313.68 300.8 326.3" style="fill:#10B981"></polygon><polygon points="300.8 326.3 274.2 326.3 279.34 313.68 295.66 313.68 300.8 326.3" style="fill:#fafafa;opacity:0.2"></polygon><path d="M330,326.3q2.31-6.26,4.27-12.62H295.66l5.14,12.62Z" style="fill:#10B981"></path><path d="M330,326.3q2.31-6.26,4.27-12.62H295.66l5.14,12.62Z" style="opacity:0.30000000000000004"></path><path d="M332.2,320.1l-2.61-6.42H313.28l-5.14,12.62H330C330.78,324.25,331.5,322.18,332.2,320.1Z" style="fill:#10B981"></path><path d="M332.2,320.1l-2.61-6.42H313.28l-5.14,12.62H330C330.78,324.25,331.5,322.18,332.2,320.1Z" style="fill:#fafafa;opacity:0.2"></path><path d="M334.29,313.68h-4.7l2.61,6.42Q333.3,316.91,334.29,313.68Z" style="fill:#10B981"></path><path d="M334.29,313.68h-4.7l2.61,6.42Q333.3,316.91,334.29,313.68Z" style="opacity:0.30000000000000004"></path></g><path d="M257.18,112.41A138.13,138.13,0,1,0,395.31,250.54,138.13,138.13,0,0,0,257.18,112.41ZM257,363.52A113.09,113.09,0,1,1,370.1,250.43,113.09,113.09,0,0,1,257,363.52Z" style="fill:#10B981"></path><path d="M257.18,381.56c72.24,0,131-58.78,131-131s-58.78-131-131-131-131,58.77-131,131S184.93,381.56,257.18,381.56Zm0-261a130.17,130.17,0,0,1,130,130c0,71.69-58.33,130-130,130s-130-58.33-130-130S185.48,120.52,257.18,120.52Z" style="fill:#fafafa;opacity:0.4"></path></g><g id="freepik--safe-door--inject-1"><path d="M318.88,384.19c-31.94-4.81-56.2-64.51-56.2-133.65s24.26-128.84,56.2-133.65l29.77-4.48V388.67Z" style="fill:#10B981"></path><path d="M318.88,384.19c-31.94-4.81-56.2-64.51-56.2-133.65s24.26-128.84,56.2-133.65l29.77-4.48V388.67Z" style="opacity:0.30000000000000004"></path><ellipse cx="348.65" cy="250.54" rx="52.17" ry="138.13" style="fill:#10B981"></ellipse><path d="M358.31,182c-16,0-28.89,30.69-28.89,68.55s12.93,68.54,28.89,68.54,28.89-30.68,28.89-68.54S374.27,182,358.31,182Zm23,68.55c0,10.89-1.76,20.79-4.64,28.22L368.33,250l8.18-28.17C379.51,229.3,381.35,239.4,381.35,250.54Zm-17.59-41.71c3.53,0,6.8,2.46,9.55,6.69l-7.47,25.91-8.62-29.6A9.53,9.53,0,0,1,363.76,208.83Zm-17.57,41.71c0-14.1,2.95-26.55,7.46-34.1L363.37,250l-9.9,34.32C349.06,276.76,346.19,264.45,346.19,250.54Zm17.57,41.71A9.66,9.66,0,0,1,357,289l8.84-30.47,7.71,26.64C370.75,289.66,367.39,292.25,363.76,292.25Z" style="fill:#fafafa;opacity:0.2"></path><path d="M350.06,385.17c-23.5,0-48.66-54.1-48.66-134.63s25.16-134.63,48.66-134.63,48.67,54.1,48.67,134.63S373.57,385.17,350.06,385.17Zm0-268.26c-23,0-47.66,53.69-47.66,133.63S327,384.17,350.06,384.17s47.67-53.7,47.67-133.63S373.08,116.91,350.06,116.91Z" style="fill:#fafafa;opacity:0.4"></path></g></svg>